@startuml
'https://plantuml.com/class-diagram

class Character{
    - character : char
    - characterProperty : CharacterProperties

    + setCharacter(character : char) : void
    + setCharacterProperty(characterProperty : CharacterProperties) : void
    + getCharacter() : char
    + getFont() : String
    + getColor() : String
    + getSize() : int
}

class CharacterProperties{
    - FONT : String {readOnly}
    - COLOR : String {readOnly}
    - SIZE : int {readOnly}

    + getFont() : String
    + getColor() : String
    + getSize() : int
}

class CharacterPropertiesFactory{
    - FLYWEIGHTS : Map<String, CharacterProperties>

    + setAndRetrieveFlyweightCharacterProperties(font : String, color : String, size : int) : CharacterProperties
    + sizeOfMap() : int
}

class Document{
    - CHARACTERS : Character[*]
    - PROPERTIESFACTORY : CharacterPropertiesFactory

    + addCharacter(c : char, font : String, color : String, size : int) : void
    + ediCharacterProperties(index : int, font : String, color : String, size : int) : void
    + saveToFile(filename : String) : void
    + loadFromFile(filename : String) : void

}

Character "*" o-- "1" CharacterProperties

Document *-- "*" Character : contains
Document *-- "1" CharacterPropertiesFactory

CharacterPropertiesFactory "1" *--> "*" CharacterProperties : produces

@enduml